<svg width="117" height="32" viewBox="0 0 117 32" fill="none" xmlns="http://www.w3.org/2000/svg">
<path d="M23.161 24V23.517L23.782 23.333C24.104 23.241 24.3493 23.103 24.518 22.919C24.702 22.735 24.8477 22.482 24.955 22.16L29.601 8.728H31.51L36.133 22.252C36.2557 22.5893 36.3937 22.85 36.547 23.034C36.7003 23.2027 36.9457 23.3407 37.283 23.448L37.628 23.54V24H31.786V23.54L32.177 23.425C32.5143 23.3177 32.7137 23.149 32.775 22.919C32.8517 22.689 32.8363 22.4053 32.729 22.068L31.763 19.101H26.68L25.691 22.022C25.5837 22.3593 25.553 22.6353 25.599 22.85C25.645 23.0647 25.8367 23.2333 26.174 23.356L26.68 23.517V24H23.161ZM26.91 18.434H31.556L29.302 11.511L26.91 18.434ZM38.3532 24V23.517L38.8132 23.379C39.1199 23.2717 39.3192 23.1337 39.4112 22.965C39.5186 22.781 39.5722 22.528 39.5722 22.206V10.591C39.5722 10.269 39.5186 10.0237 39.4112 9.855C39.3192 9.671 39.1199 9.52533 38.8132 9.418L38.3532 9.28V8.797H44.1032V9.28L43.6432 9.418C43.3519 9.52533 43.1526 9.671 43.0452 9.855C42.9379 10.0237 42.8842 10.269 42.8842 10.591V22.206C42.8842 22.528 42.9379 22.781 43.0452 22.965C43.1526 23.1337 43.3519 23.2717 43.6432 23.379L44.1032 23.517V24H38.3532ZM48.755 24.322C48.019 24.322 47.352 24.2377 46.754 24.069C46.1713 23.9157 45.6116 23.6933 45.075 23.402V20.688H45.696L46.386 21.999C46.6773 22.5663 47.007 22.988 47.375 23.264C47.7583 23.54 48.2413 23.678 48.824 23.678C49.5446 23.678 50.1196 23.5247 50.549 23.218C50.9783 22.896 51.193 22.4667 51.193 21.93C51.193 21.4393 51.032 21.0407 50.71 20.734C50.388 20.4273 49.813 20.1437 48.985 19.883L47.973 19.561C47.0683 19.285 46.3476 18.871 45.811 18.319C45.2896 17.7517 45.029 17.0463 45.029 16.203C45.029 15.5437 45.2053 14.9457 45.558 14.409C45.9106 13.857 46.4243 13.42 47.099 13.098C47.7736 12.776 48.594 12.615 49.56 12.615C50.1886 12.615 50.7636 12.6917 51.285 12.845C51.8216 12.983 52.343 13.1823 52.849 13.443L52.711 15.904H52.113L51.4 14.593C51.1546 14.1023 50.9016 13.765 50.641 13.581C50.3956 13.3817 50.0123 13.282 49.491 13.282C48.939 13.282 48.4483 13.4277 48.019 13.719C47.605 13.995 47.398 14.386 47.398 14.892C47.398 15.3673 47.5743 15.7583 47.927 16.065C48.2796 16.3563 48.847 16.6323 49.629 16.893L50.618 17.192C51.7373 17.5447 52.5346 18.0123 53.01 18.595C53.4853 19.1777 53.723 19.8753 53.723 20.688C53.723 21.7767 53.286 22.6583 52.412 23.333C51.5533 23.9923 50.3343 24.322 48.755 24.322ZM54.4802 24V23.563L54.8252 23.448C55.3465 23.2947 55.6072 22.919 55.6072 22.321V10.407C55.6072 10.1003 55.5458 9.87033 55.4232 9.717C55.3005 9.54833 55.0858 9.42567 54.7792 9.349L54.4802 9.257V8.82L58.5052 7.854L58.8042 8.061L58.7122 11.304V22.321C58.7122 22.9343 58.9728 23.3177 59.4942 23.471L59.8162 23.563V24H54.4802ZM62.8982 24L58.7352 18.25L62.8062 14.478C63.0055 14.3093 63.1205 14.1253 63.1512 13.926C63.1818 13.7113 63.0515 13.5657 62.7602 13.489L62.3922 13.397V12.96H65.9802V13.397L65.3132 13.558C64.9758 13.65 64.6998 13.7803 64.4852 13.949C64.2705 14.1023 64.0175 14.3093 63.7262 14.57L61.1962 16.939L65.1062 22.298C65.3515 22.62 65.5738 22.873 65.7732 23.057C65.9725 23.2257 66.2408 23.3713 66.5782 23.494L66.8082 23.563V24H62.8982Z" fill="white"/>
<path d="M70.529 24V23.517L70.966 23.402C71.2727 23.31 71.472 23.172 71.564 22.988C71.656 22.804 71.7097 22.551 71.725 22.229C71.7403 21.355 71.748 20.4733 71.748 19.584C71.748 18.6793 71.748 17.7747 71.748 16.87V15.927C71.748 15.0377 71.748 14.1483 71.748 13.259C71.748 12.3697 71.7403 11.4803 71.725 10.591C71.7097 10.269 71.6637 10.0237 71.587 9.855C71.5103 9.671 71.3263 9.533 71.035 9.441L70.529 9.28V8.797H81.592L81.753 12.684H81.132L79.936 10.407C79.7827 10.1157 79.614 9.89333 79.43 9.74C79.246 9.57133 78.9777 9.487 78.625 9.487H75.083C75.0677 10.5143 75.0523 11.5723 75.037 12.661C75.037 13.7343 75.037 14.8077 75.037 15.881H77.245C77.5977 15.881 77.8583 15.8043 78.027 15.651C78.1957 15.4823 78.3567 15.2523 78.51 14.961L78.97 14.11H79.476V18.319H78.97L78.51 17.491C78.3413 17.1843 78.1727 16.9543 78.004 16.801C77.8507 16.6323 77.5977 16.548 77.245 16.548H75.037C75.037 17.56 75.037 18.5337 75.037 19.469C75.037 20.389 75.0447 21.2937 75.06 22.183C75.06 22.8117 75.3437 23.2027 75.911 23.356L76.601 23.517V24H70.529ZM85.0328 11.35C84.5268 11.35 84.0975 11.189 83.7448 10.867C83.3922 10.545 83.2158 10.1387 83.2158 9.648C83.2158 9.142 83.3922 8.73567 83.7448 8.429C84.0975 8.107 84.5268 7.946 85.0328 7.946C85.5388 7.946 85.9682 8.107 86.3208 8.429C86.6735 8.73567 86.8498 9.142 86.8498 9.648C86.8498 10.1387 86.6735 10.545 86.3208 10.867C85.9682 11.189 85.5388 11.35 85.0328 11.35ZM82.3878 24V23.563L82.7328 23.471C83.0395 23.379 83.2465 23.241 83.3538 23.057C83.4612 22.873 83.5225 22.6277 83.5378 22.321V18.089C83.5378 17.6137 83.5378 17.1767 83.5378 16.778C83.5378 16.364 83.5302 15.9423 83.5148 15.513C83.5148 15.2063 83.4535 14.9687 83.3308 14.8C83.2235 14.616 83.0165 14.4933 82.7098 14.432L82.3878 14.363V13.949L86.4128 12.615L86.6888 12.868L86.6198 16.134V22.344C86.6198 22.6507 86.6735 22.896 86.7808 23.08C86.9035 23.264 87.1105 23.402 87.4018 23.494L87.6548 23.563V24H82.3878ZM88.6764 24V23.563L89.0214 23.448C89.328 23.3713 89.535 23.241 89.6424 23.057C89.765 22.873 89.8264 22.6277 89.8264 22.321V15.582C89.811 15.2447 89.7497 14.9917 89.6424 14.823C89.535 14.639 89.328 14.5163 89.0214 14.455L88.6764 14.363V13.949L92.4254 12.615L92.7014 12.868L92.9084 14.892V15.053C93.1384 14.6237 93.4297 14.225 93.7824 13.857C94.135 13.489 94.5184 13.19 94.9324 12.96C95.3464 12.73 95.7604 12.615 96.1744 12.615C96.757 12.615 97.194 12.7683 97.4854 13.075C97.7767 13.3817 97.9224 13.7727 97.9224 14.248C97.9224 14.7693 97.7767 15.168 97.4854 15.444C97.194 15.7047 96.8414 15.835 96.4274 15.835C95.814 15.835 95.285 15.559 94.8404 15.007L94.7944 14.961C94.641 14.777 94.4647 14.6773 94.2654 14.662C94.0814 14.6313 93.8974 14.7233 93.7134 14.938C93.56 15.0913 93.4144 15.2753 93.2764 15.49C93.1537 15.6893 93.0387 15.927 92.9314 16.203V22.229C92.9314 22.5203 92.9927 22.7657 93.1154 22.965C93.238 23.149 93.445 23.2793 93.7364 23.356L94.4264 23.563V24H88.6764ZM102.426 24.322C101.69 24.322 101.023 24.2377 100.425 24.069C99.8422 23.9157 99.2825 23.6933 98.7459 23.402V20.688H99.3669L100.057 21.999C100.348 22.5663 100.678 22.988 101.046 23.264C101.429 23.54 101.912 23.678 102.495 23.678C103.216 23.678 103.791 23.5247 104.22 23.218C104.649 22.896 104.864 22.4667 104.864 21.93C104.864 21.4393 104.703 21.0407 104.381 20.734C104.059 20.4273 103.484 20.1437 102.656 19.883L101.644 19.561C100.739 19.285 100.019 18.871 99.4819 18.319C98.9605 17.7517 98.6999 17.0463 98.6999 16.203C98.6999 15.5437 98.8762 14.9457 99.2289 14.409C99.5815 13.857 100.095 13.42 100.77 13.098C101.445 12.776 102.265 12.615 103.231 12.615C103.86 12.615 104.435 12.6917 104.956 12.845C105.493 12.983 106.014 13.1823 106.52 13.443L106.382 15.904H105.784L105.071 14.593C104.826 14.1023 104.573 13.765 104.312 13.581C104.067 13.3817 103.683 13.282 103.162 13.282C102.61 13.282 102.119 13.4277 101.69 13.719C101.276 13.995 101.069 14.386 101.069 14.892C101.069 15.3673 101.245 15.7583 101.598 16.065C101.951 16.3563 102.518 16.6323 103.3 16.893L104.289 17.192C105.408 17.5447 106.206 18.0123 106.681 18.595C107.156 19.1777 107.394 19.8753 107.394 20.688C107.394 21.7767 106.957 22.6583 106.083 23.333C105.224 23.9923 104.005 24.322 102.426 24.322ZM112.766 24.322C111.815 24.322 111.064 24.092 110.512 23.632C109.975 23.1567 109.707 22.39 109.707 21.332C109.707 20.964 109.707 20.619 109.707 20.297C109.722 19.9597 109.73 19.5687 109.73 19.124V13.673H108.097V13.167L108.718 13.075C109.163 12.9983 109.538 12.8603 109.845 12.661C110.167 12.4617 110.458 12.1857 110.719 11.833L112.214 9.763H112.904L112.835 12.96H115.457V13.673H112.812V21.516C112.812 22.068 112.927 22.482 113.157 22.758C113.402 23.034 113.701 23.172 114.054 23.172C114.361 23.172 114.637 23.103 114.882 22.965C115.127 22.8117 115.373 22.6123 115.618 22.367L115.917 22.712C115.626 23.218 115.219 23.6167 114.698 23.908C114.177 24.184 113.533 24.322 112.766 24.322Z" fill="#E2FF21"/>
<path d="M0 8L5.9434 14.3158H15.4528V21.8947L21 8H0Z" fill="#E2FF21"/>
<path d="M12.6792 18.1053H6.73585V24H12.6792V18.1053Z" fill="#E2FF21"/>
</svg>
